<svg xmlns="http://www.w3.org/2000/svg" width="1148.638" height="703.5" viewBox="0 0 1148.638 703.5"><g transform="translate(-523.362 -171)"><g transform="translate(1331.931 871) rotate(180)" fill="none"><path d="M404.284,0,808.568,700H0Z" stroke="none"/><path d="M 404.2842102050781 9.99749755859375 L 8.6617431640625 695 L 799.9066772460938 695 L 404.2842102050781 9.99749755859375 M 404.2842102050781 0 L 808.5684204101562 700 L 0 700 L 404.2842102050781 0 Z" stroke="none" fill="#fff"/></g><line x2="688" transform="translate(584.5 271)" fill="none" stroke="#fff" stroke-width="5"/><line x2="400" transform="translate(1270.5 271.5)" fill="none" stroke="#fff" stroke-width="5" opacity="0.5"/><line x2="456" transform="translate(1214.5 371.5)" fill="none" stroke="#fff" stroke-width="5" opacity="0.5"/><line x2="515" transform="translate(1155.5 471.5)" fill="none" stroke="#fff" stroke-width="5" opacity="0.5"/><line x2="357" transform="translate(1313.5 173.5)" fill="none" stroke="#fff" stroke-width="5" opacity="0.5"/><line x2="574" transform="translate(640.5 371)" fill="none" stroke="#fff" stroke-width="5"/><path d="M0,0H457.048" transform="translate(698.687 471)" fill="none" stroke="#fff" stroke-width="5"/><line x2="342" transform="translate(756.5 571)" fill="none" stroke="#fff" stroke-width="5"/><line x2="226" transform="translate(814.5 671)" fill="none" stroke="#fff" stroke-width="5"/><line x2="111" transform="translate(872.5 771)" fill="none" stroke="#fff" stroke-width="5"/><line x2="572" transform="translate(1098.5 571.5)" fill="none" stroke="#fff" stroke-width="5" opacity="0.5"/><line x2="630" transform="translate(1040.5 671.5)" fill="none" stroke="#fff" stroke-width="5" opacity="0.5"/><line x2="687" transform="translate(983.5 771.5)" fill="none" stroke="#fff" stroke-width="5" opacity="0.5"/><line x2="743" y2="3.5" transform="translate(927.5 868.5)" fill="none" stroke="#fff" stroke-width="5" opacity="0.5"/><text transform="translate(1446 239)" fill="#fff" font-size="45" font-family="Montserrat-Medium, Montserrat" font-weight="500"><tspan x="0" y="0">SETTINGS</tspan></text><text transform="translate(1515 338)" fill="#fff" font-size="45" font-family="Montserrat-Medium, Montserrat" font-weight="500"><tspan x="0" y="0">TOOLS</tspan></text><text transform="translate(1432 438)" fill="#fff" font-size="45" font-family="Montserrat-Medium, Montserrat" font-weight="500"><tspan x="0" y="0">GENERICS</tspan></text><text transform="translate(1420 538)" fill="#fff" font-size="45" font-family="Montserrat-Medium, Montserrat" font-weight="500"><tspan x="0" y="0">ELEMENTS</tspan></text><text transform="translate(1460 638)" fill="#fff" font-size="45" font-family="Montserrat-Medium, Montserrat" font-weight="500"><tspan x="0" y="0">OBJECTS</tspan></text><text transform="translate(1331 738)" fill="#fff" font-size="45" font-family="Montserrat-Medium, Montserrat" font-weight="500"><tspan x="0" y="0">COMPONENTS</tspan></text><text transform="translate(1456 836)" fill="#fff" font-size="45" font-family="Montserrat-Medium, Montserrat" font-weight="500"><tspan x="0" y="0">UTILITIES</tspan></text></g></svg>